<svg width="1280" height="871" viewBox="0 0 1280 871" fill="none" xmlns="http://www.w3.org/2000/svg">
<g filter="url(#filter0_df_235_698)">
<path fill-rule="evenodd" clip-rule="evenodd" d="M872.928 165.471C977.803 165.748 1041.44 178.308 1073.5 252.15C1105.56 325.991 1126.21 398.803 1037 448.5C947.788 498.197 918.059 541.223 823.72 497.183C716.366 447.067 681.849 339.468 728.889 252.15C798.083 187.916 794.098 165.625 872.928 165.471Z" fill="#5E449A"/>
</g>
<g filter="url(#filter1_df_235_698)">
<path fill-rule="evenodd" clip-rule="evenodd" d="M239.277 323.724C330.541 286.032 479.304 222.684 531 268.468C646.5 323.724 592.523 412.109 531 482.967C469.477 553.826 399.743 599.359 303.52 599.24C194.021 599.105 129.299 527.98 142.021 443.134C181.452 368.216 170.795 352.337 239.277 323.724Z" fill="#D9DFDE"/>
</g>
<g filter="url(#filter2_b_235_698)">
<rect y="13" width="1278" height="858" fill="url(#paint0_linear_235_698)"/>
</g>
<g filter="url(#filter3_df_235_698)">
<path fill-rule="evenodd" clip-rule="evenodd" d="M625.223 250.749C773.356 250.968 730.675 172.782 775.909 250.749C798.543 289.762 882.453 425.711 756.409 478.262C630.365 530.813 651.63 580.71 518.409 534.262C492.5 418.5 492.5 415.5 457.223 316.749C555.002 248.859 513.877 250.967 625.223 250.749Z" fill="#FF6F00" fill-opacity="0.22" shape-rendering="crispEdges"/>
</g>
<g filter="url(#filter4_b_235_698)">
<rect x="3" width="1280" height="858" fill="url(#paint1_linear_235_698)"/>
</g>
<path d="M407.356 163.997C601.24 159.249 795.24 160.988 989.163 159.25C1025.19 214.359 1057.55 221.947 1070.92 324.578C1085.97 440.351 1101.76 483.336 1142.1 563.584C1190.39 659.644 1238.75 752.44 1283 857.785C856.346 856.513 429.68 856.513 3 857.785C39.5354 794.79 86.6759 761.216 119.793 690.633C149.083 628.402 172.644 567.188 205.256 511.4C272.985 395.246 328.866 240.049 407.356 163.997Z" stroke="#242424" stroke-width="2" stroke-miterlimit="10"/>
<path d="M78.5162 752.737C139.253 779.232 201.544 820.564 263.873 823.446C307.731 825.524 350.269 801.021 392.456 778.087C435.188 754.899 477.608 730.862 521.971 733.321C566.334 735.78 609.648 761.385 652.71 782.962C745.068 829.169 833.619 821.454 927.745 815.35C974.205 812.297 1021.27 816.07 1067.59 807.592C1122.97 797.503 1176.85 761.851 1231.43 741.121" stroke="#242424" stroke-width="2" stroke-miterlimit="10"/>
<path d="M137.719 646.755C187.618 655.021 238.72 666.255 288.794 656.166C337.352 646.373 384.493 615.724 431.925 592.578C473.16 572.399 517.795 549.889 560.002 567.991C598.849 584.651 632.49 634.292 666.831 674.564C747.088 768.844 828.045 749.301 916.849 748.75C962.241 748.453 1007.96 751.887 1053.32 747.945C1104.28 743.705 1148.04 706.104 1195.42 667.697" stroke="#242424" stroke-width="2" stroke-miterlimit="10"/>
<path d="M185.397 545.352C232.81 545.14 279.173 546.963 326.042 528.395C373.318 509.785 419.429 479.475 466.589 459.551C505.203 443.23 544.729 429.876 582.683 458.873C616.81 484.774 644.837 535.433 675.08 576.85C745.392 673.206 819.978 651.841 900.099 655.911C991.506 660.616 1075.67 672.316 1163.03 605.04" stroke="#242424" stroke-width="2" stroke-miterlimit="10"/>
<path d="M227.825 472.655C320.28 472.146 401.043 392.365 490.604 356.077C563.694 326.403 615.69 381.894 681.264 441.2C740.796 494.996 802.427 485.5 865.533 497.666C949.267 513.818 1029.37 528.57 1113.28 506.145" stroke="#242424" stroke-width="2" stroke-miterlimit="10"/>
<path d="M264.427 409.916C346.569 392.027 420.572 308.727 501.703 282.74C568.287 261.544 625.372 320.215 686.886 365.023C744.651 407.161 803.251 401.904 863.289 412.587C937.428 425.771 1009.55 437.09 1084.04 428.484" stroke="#242424" stroke-width="2" stroke-miterlimit="10"/>
<path d="M296.142 347.682C365.308 313.047 431.309 236.063 502.495 222.413C567.855 209.696 631.408 266.331 693.718 300.16C814.143 365.571 948.32 325.595 1071.62 330.81" stroke="#242424" stroke-width="2" stroke-miterlimit="10"/>
<path d="M322.363 285.747C382.323 243.355 441.934 174.425 506.07 171.288C571.565 167.982 636.808 217.92 700.303 245.941C818.358 298.21 939.502 249.12 1058.9 253.19" stroke="#242424" stroke-width="2" stroke-miterlimit="10"/>
<path d="M346.308 231.317C406.773 190.748 467.063 139.496 531.413 150.518C588.984 160.395 645.273 192.232 702.086 213.131C813.499 254.209 927.397 220.38 1039.76 218.43" stroke="#242424" stroke-width="2" stroke-miterlimit="10"/>
<path d="M368.525 200.114C423.726 177.096 478.325 155.264 534.769 160.775C590.223 166.201 645.113 186.21 700.295 198.504C806.327 221.861 914.069 202.022 1020.41 199.902" stroke="#242424" stroke-width="2" stroke-miterlimit="10"/>
<path d="M389.024 182.27C492.764 164.931 594.756 176.716 698.477 184.474C799.906 192.062 901.684 183.669 1003.15 182.482" stroke="#242424" stroke-width="2" stroke-miterlimit="10"/>
<path d="M935.884 159.631C967.156 215.886 992.62 230.087 1000.51 324.96C1004.12 368.581 1002.29 413.771 1009.69 455.612C1019.4 510.255 1042.13 553.707 1059.9 596.396C1079.33 643.027 1098.07 689.658 1115.82 739.511C1130.53 780.674 1151.66 814.757 1164.65 857.997" stroke="#242424" stroke-width="2" stroke-miterlimit="10"/>
<path d="M882.696 160.185C910.025 219.279 931.837 231.658 933.896 324.03C932.181 369.768 932.892 415.786 936.013 461.168C946.666 507.817 958.973 552.578 972.821 595.042C998.984 680.419 1018.45 778.09 1046.73 857.872" stroke="#242424" stroke-width="2" stroke-miterlimit="10"/>
<path d="M829.6 160.732C854.85 229.873 871.399 245.092 867.242 341.152C863.358 432.38 869.554 496.773 882.159 584.694C895.212 675.837 908.42 774.398 929.183 857.826" stroke="#242424" stroke-width="2" stroke-miterlimit="10"/>
<path d="M776.552 161.246C792.246 239.374 809.222 245.818 799.005 339.843C790.168 421.32 791.333 493.302 792.576 577.238C793.994 672.747 796.752 769.062 811.999 858" stroke="#242424" stroke-width="2" stroke-miterlimit="10"/>
<path d="M723.61 162.008C725.174 185.04 729.04 207.038 734.934 226.444C736.129 260.791 733.385 295.247 726.951 326.701C716.968 402.074 713.918 472.487 711.413 550.7C708.188 653.204 705.877 757.7 695.155 857.957" stroke="#242424" stroke-width="2" stroke-miterlimit="10"/>
<path d="M670.732 162.265C658.055 262.902 647.747 364.889 639.849 467.826C628.972 604.795 598.458 725.782 578.918 857.833" stroke="#242424" stroke-width="2" stroke-miterlimit="10"/>
<path d="M617.781 162.215C611.1 177.787 603.661 180.091 595.464 169.125C583.81 181.475 578.909 202.233 580.76 231.399C582.353 257.624 582.353 284.193 580.76 310.418C574.799 340.122 569.782 370.689 565.746 401.899C541.797 560.615 497.764 708.817 462.802 857.656" stroke="#242424" stroke-width="2" stroke-miterlimit="10"/>
<path d="M564.956 162.302C547.067 182.947 540.832 144.922 524.827 155.011C505.113 167.474 512.28 202.532 509.697 236.276C504.569 302.874 493.381 350.184 479.105 411.652C458.089 502.032 434.198 587.409 414.775 679.569C404.869 726.412 397.915 770.627 380.376 806.745C370.936 826.288 357.417 838.115 347.492 857.87" stroke="#242424" stroke-width="2" stroke-miterlimit="10"/>
<path d="M512.403 162.982C492.863 178.116 474.1 140.896 456.328 167.56C445.47 183.839 441.547 231.445 438.031 256.583C427.096 335.051 405.011 396.477 383.432 462.608C351.888 559.177 336.408 637.179 314.052 745.744C305.933 785.211 302.514 810.731 284.528 829.045C267.979 846.001 249.741 840.533 232.24 857.871" stroke="#242424" stroke-width="2" stroke-miterlimit="10"/>
<path d="M459.796 162.935C440.373 177.687 417.706 170.947 400.555 198.586C384.589 224.276 376.004 273.324 365.826 308.509C344.46 382.228 317.733 444.163 289.783 506.14C277.741 532.847 262.299 557.011 251.83 586.685C234.99 634.546 229.571 695.209 215.139 745.909C193.055 823.614 150.615 812.422 117.401 857.782" stroke="#242424" stroke-width="2" stroke-miterlimit="10"/>
<defs>
<filter id="filter0_df_235_698" x="458.326" y="-75.5291" width="892.599" height="850.022" filterUnits="userSpaceOnUse" color-interpolation-filters="sRGB">
<feFlood flood-opacity="0" result="BackgroundImageFix"/>
<feColorMatrix in="SourceAlpha" type="matrix" values="0 0 0 0 0 0 0 0 0 0 0 0 0 0 0 0 0 0 127 0" result="hardAlpha"/>
<feOffset dy="9"/>
<feGaussianBlur stdDeviation="125"/>
<feComposite in2="hardAlpha" operator="out"/>
<feColorMatrix type="matrix" values="0 0 0 0 0.552361 0 0 0 0 0.697411 0 0 0 0 0.808333 0 0 0 1 0"/>
<feBlend mode="normal" in2="BackgroundImageFix" result="effect1_dropShadow_235_698"/>
<feBlend mode="normal" in="SourceGraphic" in2="effect1_dropShadow_235_698" result="shape"/>
<feGaussianBlur stdDeviation="21.3" result="effect2_foregroundBlur_235_698"/>
</filter>
<filter id="filter1_df_235_698" x="-109.565" y="11.4846" width="958.426" height="846.756" filterUnits="userSpaceOnUse" color-interpolation-filters="sRGB">
<feFlood flood-opacity="0" result="BackgroundImageFix"/>
<feColorMatrix in="SourceAlpha" type="matrix" values="0 0 0 0 0 0 0 0 0 0 0 0 0 0 0 0 0 0 127 0" result="hardAlpha"/>
<feOffset dy="9"/>
<feGaussianBlur stdDeviation="125"/>
<feComposite in2="hardAlpha" operator="out"/>
<feColorMatrix type="matrix" values="0 0 0 0 0.929412 0 0 0 0 0.937255 0 0 0 0 0.937255 0 0 0 1 0"/>
<feBlend mode="normal" in2="BackgroundImageFix" result="effect1_dropShadow_235_698"/>
<feBlend mode="normal" in="SourceGraphic" in2="effect1_dropShadow_235_698" result="shape"/>
<feGaussianBlur stdDeviation="21.3" result="effect2_foregroundBlur_235_698"/>
</filter>
<filter id="filter2_b_235_698" x="-255" y="-242" width="1788" height="1368" filterUnits="userSpaceOnUse" color-interpolation-filters="sRGB">
<feFlood flood-opacity="0" result="BackgroundImageFix"/>
<feGaussianBlur in="BackgroundImageFix" stdDeviation="127.5"/>
<feComposite in2="SourceAlpha" operator="in" result="effect1_backgroundBlur_235_698"/>
<feBlend mode="normal" in="SourceGraphic" in2="effect1_backgroundBlur_235_698" result="shape"/>
</filter>
<filter id="filter3_df_235_698" x="207.223" y="-24.8545" width="867.036" height="836.53" filterUnits="userSpaceOnUse" color-interpolation-filters="sRGB">
<feFlood flood-opacity="0" result="BackgroundImageFix"/>
<feColorMatrix in="SourceAlpha" type="matrix" values="0 0 0 0 0 0 0 0 0 0 0 0 0 0 0 0 0 0 127 0" result="hardAlpha"/>
<feOffset dy="9"/>
<feGaussianBlur stdDeviation="125"/>
<feComposite in2="hardAlpha" operator="out"/>
<feColorMatrix type="matrix" values="0 0 0 0 0.302243 0 0 0 0 0.131565 0 0 0 0 0 0 0 0 1 0"/>
<feBlend mode="normal" in2="BackgroundImageFix" result="effect1_dropShadow_235_698"/>
<feBlend mode="normal" in="SourceGraphic" in2="effect1_dropShadow_235_698" result="shape"/>
<feGaussianBlur stdDeviation="41.85" result="effect2_foregroundBlur_235_698"/>
</filter>
<filter id="filter4_b_235_698" x="-97" y="-100" width="1480" height="1058" filterUnits="userSpaceOnUse" color-interpolation-filters="sRGB">
<feFlood flood-opacity="0" result="BackgroundImageFix"/>
<feGaussianBlur in="BackgroundImageFix" stdDeviation="50"/>
<feComposite in2="SourceAlpha" operator="in" result="effect1_backgroundBlur_235_698"/>
<feBlend mode="normal" in="SourceGraphic" in2="effect1_backgroundBlur_235_698" result="shape"/>
</filter>
<linearGradient id="paint0_linear_235_698" x1="574.102" y1="118.5" x2="577.607" y2="871" gradientUnits="userSpaceOnUse">
<stop stop-color="#1C1C1C"/>
<stop offset="1" stop-color="#1C1C1C"/>
<stop offset="1" stop-color="#1C1C1C"/>
</linearGradient>
<linearGradient id="paint1_linear_235_698" x1="578" y1="105.5" x2="581.5" y2="858" gradientUnits="userSpaceOnUse">
<stop stop-color="#1C1C1C"/>
<stop offset="1" stop-color="#1C1C1C" stop-opacity="0"/>
</linearGradient>
</defs>
</svg>
