<svg width="779" height="254" viewBox="0 0 779 254" fill="none" xmlns="http://www.w3.org/2000/svg">
<ellipse cx="126.411" cy="126.827" rx="91.7383" ry="87.0338" transform="rotate(45 126.411 126.827)" fill="#E2C8B3"/>
<ellipse cx="213.649" cy="126.827" rx="92.3264" ry="87.0338" transform="rotate(45 213.649 126.827)" fill="#CF9B73"/>
<ellipse cx="301.302" cy="126.827" rx="92.3264" ry="87.0338" transform="rotate(45 301.302 126.827)" fill="#D58C54"/>
<ellipse cx="388.956" cy="126.827" rx="92.3264" ry="87.0338" transform="rotate(45 388.956 126.827)" fill="#D45C00"/>
<g filter="url(#filter0_b_34_40)">
<ellipse cx="476.609" cy="126.827" rx="92.3264" ry="87.0338" transform="rotate(45 476.609 126.827)" fill="#E26200" fill-opacity="0.08"/>
</g>
<ellipse cx="564.263" cy="126.827" rx="92.3264" ry="87.0338" transform="rotate(45 564.263 126.827)" fill="#E2C8B3"/>
<g filter="url(#filter1_b_34_40)">
<ellipse cx="651.917" cy="126.827" rx="92.3264" ry="87.0338" transform="rotate(45 651.917 126.827)" fill="url(#paint0_linear_34_40)"/>
</g>
<defs>
<filter id="filter0_b_34_40" x="303.39" y="-46.3926" width="346.439" height="346.439" filterUnits="userSpaceOnUse" color-interpolation-filters="sRGB">
<feFlood flood-opacity="0" result="BackgroundImageFix"/>
<feGaussianBlur in="BackgroundImageFix" stdDeviation="41.75"/>
<feComposite in2="SourceAlpha" operator="in" result="effect1_backgroundBlur_34_40"/>
<feBlend mode="normal" in="SourceGraphic" in2="effect1_backgroundBlur_34_40" result="shape"/>
</filter>
<filter id="filter1_b_34_40" x="458.397" y="-66.6926" width="387.039" height="387.039" filterUnits="userSpaceOnUse" color-interpolation-filters="sRGB">
<feFlood flood-opacity="0" result="BackgroundImageFix"/>
<feGaussianBlur in="BackgroundImageFix" stdDeviation="51.9"/>
<feComposite in2="SourceAlpha" operator="in" result="effect1_backgroundBlur_34_40"/>
<feBlend mode="normal" in="SourceGraphic" in2="effect1_backgroundBlur_34_40" result="shape"/>
</filter>
<linearGradient id="paint0_linear_34_40" x1="651.917" y1="39.793" x2="651.917" y2="213.861" gradientUnits="userSpaceOnUse">
<stop stop-color="#FF6F01"/>
<stop offset="1" stop-color="#FF6F01" stop-opacity="0.8"/>
</linearGradient>
</defs>
</svg>
