<svg width="300" height="94" viewBox="0 0 300 94" fill="none" xmlns="http://www.w3.org/2000/svg">
<path d="M147.73 75.1485V37.0108C146.63 37.2759 141.97 38.6014 139.44 41.1105C138.481 41.9668 137.896 43.1323 137.8 44.377V75.1485H147.73ZM184.73 41.7165C181.05 38.1943 176.82 37.5978 171.5 37.5978C167.459 37.6007 163.482 38.5471 159.92 40.3531C159.506 40.6168 159.166 40.9717 158.929 41.3873C158.692 41.8029 158.566 42.2668 158.56 42.739V47.7003C162.209 46.5624 166.011 45.9247 169.85 45.8067C172.79 45.8067 175.31 46.1381 176.94 47.4068C178.83 48.8839 179.06 51.3266 179.06 52.5102C179.06 52.9268 179.06 53.1919 179.06 53.1919V53.3434H178.91C178.91 53.3434 174.53 52.8794 169.91 52.8889C165.29 52.8984 161.3 53.6937 158.54 55.7293C157.186 56.8087 156.096 58.155 155.348 59.6742C154.601 61.1935 154.212 62.8491 154.21 64.5252C154.158 66.1747 154.501 67.814 155.215 69.3195C155.928 70.8251 156.994 72.1577 158.33 73.217C160.6 74.997 164.88 75.8397 168.45 75.8302C171.198 75.9023 173.937 75.4947 176.53 74.6278C177.36 74.3587 178.132 73.9515 178.81 73.4253L179.07 73.1886V75.0822H188.47V53.5327C188.45 48.4767 187.5 44.3676 184.74 41.7165H184.73ZM179 62.6316C179.044 63.8829 178.691 65.118 177.987 66.1777C177.283 67.2375 176.26 68.0734 175.05 68.5776C173.62 69.172 172.081 69.4937 170.52 69.5244C169.04 69.5465 167.583 69.1794 166.31 68.464C165.609 68.0176 165.04 67.4076 164.66 66.6928C164.28 65.978 164.101 65.1826 164.14 64.3832C164.121 63.4263 164.38 62.4828 164.89 61.6564C166 59.9995 168.22 58.9674 171.89 58.8917H172.73C174.871 58.8333 177.008 59.0823 179.07 59.6302L179 62.6316ZM195.57 31.6613C195.563 30.3389 196.093 29.0645 197.05 28.1013C199.63 25.5827 204.49 24.475 205.6 24.1909V75.1485H195.6L195.57 31.6613ZM232.24 37.5978C220.37 37.5978 211.24 46.0434 211.24 56.9318C211.24 67.8202 220.24 75.9912 232.11 75.9912C243.98 75.9912 253.42 67.6119 253.42 56.6572C253.42 45.7026 244.22 37.5978 232.28 37.5978H232.24ZM232.24 67.7539C226.19 67.7539 221.32 62.802 221.32 56.6572C221.32 50.3704 225.9 45.9677 232.09 45.9677C238.28 45.9677 243.09 50.7017 243.09 56.9318C243.09 63.1618 238.62 67.7539 232.28 67.7539H232.24ZM292.75 39.1127C291.247 39.6335 290.01 40.6761 289.29 42.0289C284.96 38.2417 279.89 37.7209 275.63 37.7209C266.63 37.7209 257.92 43.9131 257.92 55.4548C257.92 66.9964 266.81 72.6395 275.63 72.6395C280.63 72.6395 285.25 71.5317 289.37 68.1894C289.37 72.8572 288.04 75.2811 286.57 76.7108C284.52 78.7275 281.36 79.7027 277.02 79.7027C274.881 79.6239 272.76 79.3061 270.7 78.7559V83.3195C270.699 83.9162 270.878 84.5008 271.216 85.0042C271.555 85.5076 272.038 85.9086 272.61 86.16C275.381 87.146 278.32 87.6403 281.28 87.6181C286.336 87.6477 291.209 85.826 294.88 82.5337C298.26 79.4092 299.94 74.1165 299.94 67.2994V37.7209C297.5 37.8653 295.093 38.3338 292.79 39.1127H292.75ZM278.75 64.5063C272.65 64.5063 268.24 60.4729 268.24 55.1897C268.24 49.9064 271.99 45.7215 278.31 45.7215C284.31 45.7215 289.25 49.3383 289.25 55.4548C289.33 60.88 285 64.5063 278.83 64.5063H278.75ZM106 75.139H88.57V42.0573C88.4308 40.6948 88.8616 39.335 89.77 38.2701C92.59 35.5148 97.08 35.2308 98.64 35.032V66.2769H106C114.91 66.2769 121.38 59.0148 121.38 50.181V49.9916C121.39 41.1294 115.28 35.032 106 35.032H98.3C95.0726 35.067 91.9455 33.9711 89.52 31.9548C88.254 30.7888 87.5003 29.2127 87.41 27.5426V26.0183H106C121.56 26.0183 132.32 36.0545 132.32 50.1337V50.2757C132.32 64.3454 121.56 75.139 106 75.139Z" fill="#ED1C24"/>
<path d="M0 75.1393L34.37 93.9336V56.3545L0 75.1393Z" fill="#EE3E80"/>
<path d="M0 0V37.5696L34.37 18.7848L0 0Z" fill="#FDB933"/>
<path d="M34.37 18.7847L0 37.5695L34.37 56.3543V18.7847Z" fill="#F7941D"/>
<path d="M68.74 75.139V37.5693L34.37 56.3542L68.74 75.139Z" fill="url(#paint0_linear_183_3)"/>
<path d="M34.37 56.3543L68.74 37.5695L34.37 18.7847V56.3543Z" fill="url(#paint1_linear_183_3)"/>
<path d="M68.74 75.1393L34.37 56.3545V93.9336L68.74 75.1393Z" fill="url(#paint2_linear_183_3)"/>
<defs>
<linearGradient id="paint0_linear_183_3" x1="34.37" y1="56.3542" x2="68.74" y2="56.3542" gradientUnits="userSpaceOnUse">
<stop stop-color="#221E67"/>
<stop offset="0.09" stop-color="#3F1E6B"/>
<stop offset="0.2" stop-color="#5E1F70"/>
<stop offset="1" stop-color="#B63F81"/>
</linearGradient>
<linearGradient id="paint1_linear_183_3" x1="51.55" y1="18.7847" x2="51.55" y2="56.3543" gradientUnits="userSpaceOnUse">
<stop offset="0.1" stop-color="#F04E23"/>
<stop offset="0.14" stop-color="#F05223"/>
<stop offset="0.72" stop-color="#F5821F"/>
<stop offset="1" stop-color="#F7941D"/>
</linearGradient>
<linearGradient id="paint2_linear_183_3" x1="34.37" y1="75.1393" x2="68.74" y2="75.1393" gradientUnits="userSpaceOnUse">
<stop offset="0.05" stop-color="#AF2A47"/>
<stop offset="0.18" stop-color="#BC254B"/>
<stop offset="0.5" stop-color="#D71C54"/>
<stop offset="0.78" stop-color="#E71659"/>
<stop offset="1" stop-color="#ED145B"/>
</linearGradient>
</defs>
</svg>
